<?xml version="1.0" encoding="UTF-8"?>
<!DOCTYPE svg PUBLIC "-//W3C//DTD SVG 1.1//EN" "http://www.w3.org/Graphics/SVG/1.1/DTD/svg11.dtd">
<!-- Creator: CorelDRAW -->
<svg xmlns="http://www.w3.org/2000/svg" xml:space="preserve" width="13.7575mm" height="26.3204mm" style="shape-rendering:geometricPrecision; text-rendering:geometricPrecision; image-rendering:optimizeQuality; fill-rule:evenodd; clip-rule:evenodd"
viewBox="0 0 1.56571 2.99547"
 xmlns:xlink="http://www.w3.org/1999/xlink">
 <g id="Layer_x0020_1">
  <g id="_176796528">
   <rect id="_176797104" fill="black" width="1.56571" height="2.99547"/>
   <polygon id="_176797032" fill="#600000" points="0.0544457,0.000307281 0.486449,0.423502 1.08451,0.423479 1.51127,0 "/>
   <polygon id="_176796960" fill="#600000" points="0.0544457,2.99516 0.486449,2.57197 1.08451,2.57199 1.51127,2.99547 "/>
   <g>
    <polygon id="_176796888" fill="red" points="1.5654,2.95457 1.14221,2.52256 1.14223,1.9245 1.56571,1.49775 "/>
    <polygon id="_176796816" fill="red" points="1.5654,1.49771 1.14221,1.06571 1.14223,0.467648 1.56571,0.0408912 "/>
   </g>
   <g>
    <polygon id="_176796720" fill="#600000" points="0.000307281,2.95457 0.423502,2.52256 0.423479,1.9245 0,1.49775 "/>
    <polygon id="_176796648" fill="red" points="0.000307281,1.49771 0.423502,1.06571 0.423479,0.467648 0,0.0408912 "/>
   </g>
   <polygon id="_176796552" fill="red" points="0.0544457,1.48739 0.486449,1.73316 1.08451,1.73313 1.51123,1.48724 1.51127,1.48724 1.51124,1.48723 1.51127,1.48722 1.51123,1.48722 1.08451,1.24132 0.486449,1.2413 0.0544457,1.48707 1.41414,1.48723 "/>
  </g>
 </g>
</svg>
